<svg width="100" height="100" viewBox="0 0 100 100" fill="none" xmlns="http://www.w3.org/2000/svg">
<mask id="mask0_66_41704" style="mask-type:alpha" maskUnits="userSpaceOnUse" x="0" y="0" width="100" height="100">
<circle cx="50" cy="50" r="49.5" fill="#D9D9D9" stroke="#242424"/>
</mask>
<g mask="url(#mask0_66_41704)">
<circle cx="50" cy="50" r="49.5" fill="white" stroke="#242424"/>
<path d="M50 21C55.1717 21 60.1316 23.0545 63.7886 26.7114C67.4455 30.3684 69.5 35.3283 69.5 40.5C69.5 45.6717 67.4455 50.6316 63.7886 54.2886C60.1316 57.9455 55.1717 60 50 60C44.8283 60 39.8684 57.9455 36.2114 54.2886C32.5545 50.6316 30.5 45.6717 30.5 40.5C30.5 35.3283 32.5545 30.3684 36.2114 26.7114C39.8684 23.0545 44.8283 21 50 21ZM50 69.75C71.5475 69.75 89 78.4762 89 89.25V99H11V89.25C11 78.4762 28.4525 69.75 50 69.75Z" fill="black"/>
</g>
</svg>
